<svg width="353" height="64" viewBox="0 0 353 64" fill="none" xmlns="http://www.w3.org/2000/svg">
<rect width="353" height="64" rx="12" fill="#293258"/>
<path d="M137.938 23.0234V40.7969H135.594V23.0234H137.938ZM134.148 23.4141V40.0156H131.824V31.8516H128.914C127.898 33.8828 126.248 35.6406 123.719 37.1055L122.312 35.3477C125.896 33.2188 127.479 30.6309 127.82 27.1445H123.289V25.1328H130.301C130.291 26.8223 130.115 28.4141 129.695 29.8789H131.824V23.4141H134.148ZM154.695 23.043V33.082H152.195V23.043H154.695ZM154.695 33.8828V40.6016H142.781V33.8828H154.695ZM145.242 35.8555V38.6094H152.254V35.8555H145.242ZM144.949 23.8438C147.723 23.8438 149.812 25.6016 149.812 28.1406C149.812 30.582 147.723 32.3789 144.949 32.3789C142.176 32.3789 140.086 30.582 140.086 28.1406C140.086 25.6016 142.176 23.8438 144.949 23.8438ZM144.949 25.9336C143.523 25.9336 142.508 26.7539 142.527 28.1406C142.508 29.4688 143.523 30.2891 144.949 30.2891C146.336 30.2891 147.352 29.4688 147.352 28.1406C147.352 26.7539 146.336 25.9336 144.949 25.9336ZM168.621 27.0469C168.621 30.3086 170.105 33.5898 173.113 34.8594L171.648 36.8516C169.617 35.9336 168.211 34.166 167.41 31.9688C166.6 34.3613 165.145 36.2949 162.977 37.2812L161.473 35.2109C164.578 33.9023 166.082 30.5039 166.102 27.0469V24.3906H168.621V27.0469ZM176.59 23.0234V40.8359H174.07V23.0234H176.59ZM189.09 24.0586V26.0508H185.555C185.574 28.1309 186.805 30.2598 189.695 31.1875L188.426 33.1211C186.453 32.4863 185.096 31.2168 184.324 29.625C183.533 31.3633 182.117 32.7402 180.047 33.4141L178.719 31.5C181.658 30.5527 182.996 28.2773 183.035 26.0508H179.402V24.0586H189.09ZM193.094 23.0234V27.3398H195.496V29.4102H193.094V33.7461H190.594V23.0234H193.094ZM193.094 34.5078V40.7969H190.594V36.4805H181.121V34.5078H193.094ZM210.301 23.0234V29.9766H212.918V32.0273H210.301V40.7969H207.84V23.0234H210.301ZM206.629 25.6797V27.6719H196.18V25.6797H200.203V23.2969H202.703V25.6797H206.629ZM201.453 28.668C204.051 28.668 205.984 30.4258 205.984 32.9062C205.984 35.3867 204.051 37.1445 201.453 37.1445C198.836 37.1445 196.902 35.3867 196.902 32.9062C196.902 30.4258 198.836 28.668 201.453 28.668ZM201.453 30.6797C200.203 30.6992 199.285 31.5391 199.285 32.9062C199.285 34.293 200.203 35.1133 201.453 35.0938C202.703 35.1133 203.602 34.293 203.602 32.9062C203.602 31.5391 202.703 30.6992 201.453 30.6797ZM228.504 23.0234V40.7969H225.984V23.0234H228.504ZM223.172 24.8789C223.172 30.2695 221.277 34.7422 214.93 37.75L213.621 35.7578C218.211 33.5898 220.232 30.7773 220.633 26.832H214.578V24.8789H223.172Z" fill="white"/>
</svg>
